# xmcd CD database file
#
# Track frame offsets:
#	150
#	16944
#	41810
#	57270
#	85850
#	104743
#	113633
#	129100
#	138721
#	146280
#	158571
#	185425
#	210449
#	231510
#
# Disc length: 3390 seconds
#
# Revision: 0
# Processed by: cddbd v1.5.1PL0 Copyright (c) Steve Scherf et al.
# Submitted via: CDex 1.50
#
DISCID=bc0d3c0e
DTITLE=松谷卓 - Pentiment
DYEAR=2005
DGENRE=New Age
TTITLE0=Zero Gravity
TTITLE1=Transformation
TTITLE2=Yu-Gen
TTITLE3=七人の弔／Long Version
TTITLE4=木漏れ日
TTITLE5=いま、会いにゆきます組曲／森
TTITLE6=いま、会いにゆきます組曲／記憶
TTITLE7=いま、会いにゆきます組曲／運命
TTITLE8=いま、会いにゆきます組曲／光
TTITLE9=いま、会いにゆきます組曲／想い
TTITLE10=いま、会いにゆきます組曲／時を超えて
TTITLE11=Prelude（バッハ無伴奏チェロ組曲より）
TTITLE12=瞳をとじて／Piano Version
TTITLE13=Stargazer／Live Version from live image4
EXTD=YEAR: 2005
EXTT0=
EXTT1=
EXTT2=
EXTT3=
EXTT4=
EXTT5=
EXTT6=
EXTT7=
EXTT8=
EXTT9=
EXTT10=
EXTT11=
EXTT12=
EXTT13=
PLAYORDER=
